<?xml version="1.0" encoding="utf-8"?>
<!-- Generator: Adobe Illustrator 25.2.3, SVG Export Plug-In . SVG Version: 6.00 Build 0)  -->
<svg version="1.1" id="Layer_1" xmlns="http://www.w3.org/2000/svg" xmlns:xlink="http://www.w3.org/1999/xlink" x="0px" y="0px"
	 viewBox="0 0 26 28" style="enable-background:new 0 0 26 28;" xml:space="preserve">
<style type="text/css">
	.st0{fill-rule:evenodd;clip-rule:evenodd;fill:#FFB235;}
	.st1{opacity:0.49;fill-rule:evenodd;clip-rule:evenodd;fill:#FFD727;}
</style>
<path class="st0" d="M13.01,22.75l-9.73-9.94c-0.27-0.27-0.62-0.42-1.01-0.42s-0.74,0.15-1.01,0.42l-0.85,0.87
	C0.15,13.95,0,14.32,0,14.71c0,0.39,0.15,0.75,0.41,1.03L12,27.58c0.27,0.27,1.75,0.27,2.02,0l11.57-11.83
	c0.27-0.27,0.42-0.57,0.42-0.96c0-0.39-0.15-0.82-0.42-1.1l-0.85-0.87c-0.55-0.57-1.46-0.57-2.01,0L13.01,22.75z"/>
<path class="st1" d="M13.01,8.94L4.47,0.37C4.23,0.13,3.92,0,3.59,0C3.25,0,2.94,0.13,2.7,0.37L1.96,1.12
	C1.72,1.35,1.59,1.67,1.59,2c0,0.34,0.13,0.65,0.36,0.89L12.12,13.1c0.24,0.24,0.55,0.37,0.88,0.37c0.34,0,0.65-0.13,0.89-0.37
	L24.04,2.9c0.24-0.24,0.37-0.55,0.37-0.89s-0.13-0.65-0.37-0.89L23.3,0.37c-0.49-0.49-1.28-0.49-1.76,0L13.01,8.94z"/>
</svg>
