<?xml version="1.0" encoding="utf-8"?>
<!-- Generator: Adobe Illustrator 25.2.3, SVG Export Plug-In . SVG Version: 6.00 Build 0)  -->
<svg version="1.1" id="Layer_1" xmlns="http://www.w3.org/2000/svg" xmlns:xlink="http://www.w3.org/1999/xlink" x="0px" y="0px"
	 viewBox="0 0 31 20" style="enable-background:new 0 0 31 20;" xml:space="preserve">
<style type="text/css">
	.st0{fill-rule:evenodd;clip-rule:evenodd;fill:#FFCE55;}
</style>
<path class="st0" d="M30.8,10.61c-0.28,0.38-6.88,8.49-15.3,8.49S0.48,10.99,0.2,10.61c-0.26-0.36-0.26-0.86,0-1.22
	C0.48,9.01,7.07,0,15.5,0s15.02,9.01,15.3,9.39C31.06,9.75,31.06,10.25,30.8,10.61z M15.5,2.07C9.28,2.07,3.92,8.04,2.33,10
	c1.59,1.95,6.97,7.93,13.17,7.93c6.22,0,11.59-5.97,13.17-7.93C27.08,8.05,21.71,2.07,15.5,2.07z M15.5,16.21
	c-3.38,0-6.13-2.79-6.13-7.11c0-2.52,2.75-5.31,6.13-5.31c3.38,0,6.13,2.78,6.13,5.31C21.63,13.42,18.88,16.21,15.5,16.21z
	 M15.5,5.86c-2.25,0-4.09,1.86-4.09,3.24c0,3.18,1.83,5.04,4.09,5.04c2.25,0,4.09-1.86,4.09-5.04C19.59,7.72,17.75,5.86,15.5,5.86z"
	/>
</svg>
