<?xml version="1.0" encoding="utf-8"?>
<!-- Generator: Adobe Illustrator 25.2.3, SVG Export Plug-In . SVG Version: 6.00 Build 0)  -->
<svg version="1.1" id="Layer_1" xmlns="http://www.w3.org/2000/svg" xmlns:xlink="http://www.w3.org/1999/xlink" x="0px" y="0px"
	 viewBox="0 0 97 97" style="enable-background:new 0 0 97 97;" xml:space="preserve">
<style type="text/css">
	.st0{fill:none;}
	.st1{fill:#FFCE55;}
</style>
<rect class="st0" width="97" height="97"/>
<path class="st1" d="M95.89,90.53L75.92,70.56c-0.03-0.03-0.06-0.06-0.09-0.09L26.58,21.22c-0.03-0.03-0.07-0.07-0.1-0.1l-20-20
	c-1.48-1.48-3.88-1.48-5.36,0c-1.48,1.48-1.48,3.88,0,5.36L18.05,23.4C9.42,30.2,4.06,37.79,2.49,40.18
	c-3.33,5.06-3.33,11.59,0,16.65c2.03,3.09,7.75,11.01,17.03,17.9c9.4,6.98,19.17,10.53,29.06,10.53c8.15,0,16.24-2.42,24.1-7.21
	l17.85,17.85c0.74,0.74,1.71,1.11,2.68,1.11c0.97,0,1.94-0.37,2.68-1.11C97.37,94.41,97.37,92.01,95.89,90.53z M36.28,41.63
	l5.21,5.21c-0.55,2.4,0.11,5.01,1.98,6.88s4.48,2.53,6.88,1.98l5.03,5.03c-2.07,1.17-4.42,1.79-6.87,1.79
	c-7.73,0-14.02-6.29-14.02-14.02C34.48,46.06,35.11,43.71,36.28,41.63z M48.58,77.67c-18.4,0-33.65-15.72-39.76-25.02
	c-1.66-2.53-1.66-5.79,0-8.32c1.44-2.19,6.48-9.33,14.62-15.54l7.34,7.34c-2.52,3.6-3.88,7.89-3.88,12.36
	c0,11.91,9.69,21.6,21.6,21.6c4.49,0,8.76-1.36,12.36-3.88l6.28,6.28C61,75.94,54.78,77.67,48.58,77.67z"/>
<path class="st1" d="M94.6,40.32c-0.02-0.03-0.04-0.06-0.06-0.09c-2.01-3.09-7.69-11.02-16.93-17.93
	c-9.37-7-19.13-10.55-29.03-10.55c-3.77,0-7.59,0.53-11.35,1.58c-2.02,0.56-3.19,2.65-2.63,4.67c0.56,2.02,2.65,3.19,4.67,2.63
	c3.1-0.87,6.24-1.3,9.31-1.3c18.32,0,33.43,15.61,39.53,24.92c0.02,0.03,0.04,0.06,0.06,0.09c0.81,1.24,1.24,2.68,1.24,4.16
	c0,1.48-0.43,2.92-1.24,4.16c-1.82,2.77-4.26,5.81-6.88,8.56c-1.44,1.52-1.38,3.91,0.14,5.36c0.73,0.7,1.67,1.04,2.61,1.04
	c1,0,2-0.4,2.75-1.18c3.73-3.93,6.26-7.4,7.72-9.62C96.14,54.35,97,51.47,97,48.5C97,45.59,96.17,42.77,94.6,40.32z"/>
<path class="st1" d="M69.6,43.85c-1.78-8.11-8.16-14.55-16.26-16.4c-2.04-0.47-4.07,0.81-4.54,2.85c-0.47,2.04,0.81,4.07,2.85,4.54
	c5.25,1.2,9.39,5.38,10.55,10.64c0.39,1.77,1.96,2.98,3.7,2.98c0.27,0,0.54-0.03,0.82-0.09C68.75,47.92,70.04,45.89,69.6,43.85z"/>
</svg>
