<?xml version="1.0" encoding="utf-8"?>
<!-- Generator: Adobe Illustrator 25.2.3, SVG Export Plug-In . SVG Version: 6.00 Build 0)  -->
<svg version="1.1" id="Layer_1" xmlns="http://www.w3.org/2000/svg" xmlns:xlink="http://www.w3.org/1999/xlink" x="0px" y="0px"
	 viewBox="0 0 41 41" style="enable-background:new 0 0 41 41;" xml:space="preserve">
<style type="text/css">
	.st0{fill-rule:evenodd;clip-rule:evenodd;fill:#FFCE55;}
</style>
<path class="st0" d="M20.5,41C9.2,41,0,31.8,0,20.5C0,9.19,9.2,0,20.5,0c11.3,0,19.6,9.2,19.6,20.5C40.1,31.8,31.8,41,20.5,41z
	 M20.5,3.72c-9.25,0-16.77,7.52-16.77,16.77c0,9.25,7.52,16.77,16.77,16.77c9.25,0,16.77-7.52,16.77-16.77
	C37.27,11.25,29.75,3.72,20.5,3.72z M18.96,27.75c-0.35,0.35-0.82,0.55-1.32,0.55l0,0c-0.49,0-0.97-0.2-1.32-0.55l-6.15-6.15
	c-0.73-0.73-0.73-1.91,0-2.64c0.73-0.73,1.91-0.73,2.64,0l4.83,4.83l10.54-10.54c0.73-0.73,1.91-0.73,2.64,0
	c0.73,0.73,0.73,1.91,0,2.64L18.96,27.75z"/>
</svg>
