<svg width="127" height="29" viewBox="0 0 127 29" xmlns="http://www.w3.org/2000/svg">
    <g fill-rule="nonzero" fill="none">
        <path d="M33.37 7.174h12.857V9.58H41.17v13.522h-2.78V9.58H33.36V7.174h.01zm12.307 4.395h2.377v2.226h.045c.078-.315.224-.619.437-.91.213-.293.47-.574.773-.81a4.12 4.12 0 0 1 1.009-.596c.37-.146.751-.225 1.132-.225.292 0 .505.012.617.023.112.011.224.034.347.045v2.45a8.071 8.071 0 0 0-.55-.078 4.643 4.643 0 0 0-.548-.034c-.426 0-.83.09-1.211.258a2.79 2.79 0 0 0-.986.753c-.28.338-.505.742-.673 1.237-.168.494-.247 1.056-.247 1.697v5.485h-2.533V11.57h.011zM64.06 23.102h-2.488v-1.608h-.045c-.314.585-.773 1.046-1.39 1.394-.616.349-1.244.528-1.883.528-1.513 0-2.612-.37-3.284-1.124-.673-.753-1.009-1.888-1.009-3.405v-7.318h2.533v7.07c0 1.012.19 1.731.583 2.147.381.416.93.63 1.625.63.539 0 .976-.08 1.334-.248.36-.168.65-.382.863-.663.225-.27.382-.607.482-.989.101-.382.146-.798.146-1.248V11.58h2.533v11.522zm4.316-3.698c.078.741.359 1.259.84 1.562.494.292 1.077.45 1.76.45.236 0 .505-.023.808-.057.302-.033.594-.112.851-.213.27-.101.482-.259.662-.461.168-.202.246-.46.235-.787a1.087 1.087 0 0 0-.358-.798c-.225-.213-.505-.37-.852-.506a8.532 8.532 0 0 0-1.189-.326c-.448-.09-.896-.19-1.356-.292-.47-.101-.93-.236-1.367-.382a4.171 4.171 0 0 1-1.177-.607 2.667 2.667 0 0 1-.83-.967c-.213-.393-.314-.876-.314-1.461 0-.63.157-1.146.46-1.574a3.487 3.487 0 0 1 1.154-1.022c.471-.259.987-.439 1.559-.551a9.46 9.46 0 0 1 1.636-.158 7.61 7.61 0 0 1 1.704.191 4.385 4.385 0 0 1 1.468.619c.437.28.796.652 1.088 1.101.291.45.47 1 .549 1.641H73.06c-.123-.607-.392-1.023-.829-1.225-.437-.213-.942-.315-1.502-.315-.18 0-.392.012-.639.045a3.49 3.49 0 0 0-.695.169 1.507 1.507 0 0 0-.55.36.87.87 0 0 0-.223.618c0 .315.112.562.325.753.213.191.493.348.84.483.348.124.74.236 1.189.326.448.09.907.191 1.378.293.46.1.908.236 1.357.382.448.146.84.348 1.188.607.347.258.627.573.84.955.213.382.325.866.325 1.428 0 .685-.156 1.259-.47 1.742a3.73 3.73 0 0 1-1.21 1.158 5.683 5.683 0 0 1-1.66.652 8.302 8.302 0 0 1-1.805.202 7.636 7.636 0 0 1-2.017-.247c-.617-.169-1.155-.416-1.603-.742a3.676 3.676 0 0 1-1.065-1.248c-.258-.495-.392-1.09-.415-1.776h2.556v-.022zm8.362-7.835h1.917V8.107h2.533v3.462h2.287v1.9h-2.287v6.16c0 .27.011.494.034.696.022.191.078.36.157.495a.72.72 0 0 0 .37.303c.168.068.38.102.672.102.18 0 .359 0 .538-.012a2.96 2.96 0 0 0 .538-.078v1.967c-.28.033-.56.056-.818.09a6.535 6.535 0 0 1-.818.045c-.673 0-1.211-.068-1.614-.192-.404-.123-.73-.314-.953-.562-.236-.247-.381-.55-.471-.921a6.948 6.948 0 0 1-.146-1.27v-6.8H76.76v-1.923h-.022zm8.53 0h2.399v1.562h.045c.359-.674.852-1.146 1.49-1.438a4.9 4.9 0 0 1 2.074-.439c.908 0 1.693.158 2.365.484a4.625 4.625 0 0 1 1.682 1.315c.448.562.773 1.214.997 1.956.225.741.337 1.54.337 2.383 0 .775-.101 1.528-.303 2.248a6.024 6.024 0 0 1-.908 1.933c-.403.562-.919 1-1.547 1.338-.627.337-1.356.505-2.208.505-.37 0-.74-.033-1.11-.1a4.875 4.875 0 0 1-1.064-.327 3.843 3.843 0 0 1-.942-.573 3.557 3.557 0 0 1-.729-.81h-.044v5.756h-2.534V11.569zm8.855 5.778c0-.517-.067-1.023-.201-1.518a4.097 4.097 0 0 0-.606-1.304 3.087 3.087 0 0 0-.997-.91 2.79 2.79 0 0 0-1.379-.349c-1.065 0-1.872.371-2.41 1.113s-.807 1.731-.807 2.968c0 .584.067 1.124.213 1.618.146.495.347.922.639 1.282.28.36.616.64 1.009.843.392.213.852.314 1.367.314.583 0 1.065-.123 1.469-.36.403-.235.728-.55.986-.921.258-.382.448-.81.56-1.293.101-.483.157-.978.157-1.483zm4.473-10.173h2.533V9.58h-2.533V7.174zm0 4.395h2.533v11.533h-2.533V11.569zm4.797-4.395h2.534v15.928h-2.534V7.174zm10.302 16.242c-.92 0-1.738-.157-2.455-.46a5.42 5.42 0 0 1-1.827-1.26 5.485 5.485 0 0 1-1.132-1.921 7.438 7.438 0 0 1-.393-2.45c0-.878.135-1.687.393-2.429a5.485 5.485 0 0 1 1.132-1.922c.493-.54 1.11-.955 1.827-1.259.717-.303 1.536-.46 2.455-.46s1.737.157 2.455.46a5.42 5.42 0 0 1 1.827 1.26c.493.539.874 1.18 1.132 1.921a7.35 7.35 0 0 1 .392 2.428c0 .888-.134 1.709-.392 2.45a5.485 5.485 0 0 1-1.132 1.923c-.494.54-1.11.955-1.827 1.259-.718.303-1.536.46-2.455.46zm0-2.012c.56 0 1.053-.123 1.468-.36.415-.235.751-.55 1.02-.932.27-.382.46-.82.594-1.304.124-.483.19-.978.19-1.484 0-.494-.066-.978-.19-1.472a3.85 3.85 0 0 0-.594-1.304 3.095 3.095 0 0 0-1.02-.922c-.415-.236-.908-.36-1.468-.36-.56 0-1.054.124-1.469.36-.414.236-.75.55-1.02.922-.269.382-.46.81-.594 1.304-.123.494-.19.978-.19 1.472 0 .506.067 1 .19 1.484.123.483.325.922.594 1.304.27.382.606.697 1.02.933.415.247.908.36 1.469.36zm6.546-9.835h1.917V8.107h2.533v3.462h2.287v1.9h-2.287v6.16c0 .27.011.494.034.696.022.191.078.36.156.495a.72.72 0 0 0 .37.303c.169.068.381.102.673.102.18 0 .359 0 .538-.012a2.96 2.96 0 0 0 .538-.078v1.967c-.28.033-.56.056-.818.09a6.535 6.535 0 0 1-.819.045c-.672 0-1.21-.068-1.614-.192-.403-.123-.728-.314-.952-.562-.236-.247-.382-.55-.471-.921a6.948 6.948 0 0 1-.146-1.27v-6.8h-1.917v-1.923h-.022z" fill="#FFF"/>
        <path fill="#00B67A" d="M30.41 11.083H18.799L15.21 0l-3.598 11.083L0 11.072l9.405 6.856L5.806 29l9.405-6.845L24.604 29l-3.587-11.072z"/>
        <path fill="#005128" d="m21.824 20.435-.807-2.507-5.806 4.227z"/>
    </g>
</svg>
